<svg xmlns="http://www.w3.org/2000/svg" xmlns:xlink="http://www.w3.org/1999/xlink" viewBox="0 0 328.76 300.63"><defs><style>.cls-1,.cls-9{fill:none;}.cls-2{opacity:0.8;}.cls-3{fill:#777;}.cls-4,.cls-5{fill:#fff;}.cls-4,.cls-9{stroke:#777;stroke-miterlimit:10;}.cls-6{clip-path:url(#clip-path);}.cls-7{clip-path:url(#clip-path-2);}.cls-8{clip-path:url(#clip-path-3);}.cls-10{fill:#555;}</style><clipPath id="clip-path"><path class="cls-1" d="M68,210c-4.05.89-8.41,4.42-7.27,12.21h0c-24-7.56-44.2-3.7-59,16.86h0c10.24-6.72,20.93-6.73,31.87-2.91h0C19,244.23,8.17,254,1.39,265.64h0c7.28-3.84,17.28-12.17,32.5-13.27h0c21.68,2.71,34.51,11.08,54.71,16.42h0c2.13-7.81,3.84-14.31,5.28-20h0q67.29,36.58,146.21,1.59h0q1.64,9.36,3.27,18.71h0c10.14.54,22.43-5.48,32-8.7h0c18.15-10.81,37.41-7.47,52.9,5h0V262.9c-5.8-10.73-16.82-18.92-29.17-26h0c10.8-2.14,20.66-.28,29.17,2.89h0v-1.32c-11-10.38-17.76-22.79-55.8-16.57h0c-.43-8.39-8.17-12-10.8-10.55h0C200,245.07,158.16,264.23,72.26,210h0l-.3-.09H68Z"/></clipPath><clipPath id="clip-path-2"><path class="cls-1" d="M59.67,241.81V243c.84,4.5,10.44,12.66,30.14,21.28h0c1.56-5.8,2.88-10.85,4-15.39h0c-13.54-6.74-23.34-9.5-28.9-9.5h0c-3.13,0-4.92.88-5.26,2.42"/></clipPath><clipPath id="clip-path-3"><path class="cls-1" d="M238.44,251h0l1.64-.72h0q1.39,7.92,2.76,15.82h0c20-8.71,29.77-17,30.57-21.5h0v-1.12c-.32-1.56-2.1-2.45-5.25-2.45h0c-5.66,0-15.75,2.88-29.72,9.93"/></clipPath></defs><title>ufrr-brasao</title><g id="Layer_2" data-name="Layer 2"><g id="Layer_1-2" data-name="Layer 1"><g class="cls-2"><g id="fundo-escudo"><path id="path3401" class="cls-3" d="M85.14,101.84H249l26.42,48.79-109.26,150L56.94,149.73Z"/></g><g id="diagonal"><path id="path3413" class="cls-4" d="M84.67,102c36.56,50.32,83.84,87.11,141.14,116l-22.14,30.39H173.8c-42-24.27-79.63-59.88-116.54-98.94L84.67,102"/></g><g id="diagonal-texto"><g id="g3415"><path id="path3417" class="cls-3" d="M78.88,141l-.26-.32a.21.21,0,0,1,0-.29l2.38-2c.15-.12.27-.13.37,0l.22.27c.06.08.08.14.05.2a4.21,4.21,0,0,1-.42.52c-1,1.09-1.17,1.94-.66,2.55a1.09,1.09,0,0,0,1,.4,2.36,2.36,0,0,0,1.24-.57,2.82,2.82,0,0,0,.88-1.24,10.16,10.16,0,0,0,.46-2.3,16.19,16.19,0,0,1,.28-1.81,4.44,4.44,0,0,1,.48-1.14,3.9,3.9,0,0,1,.9-1,3.52,3.52,0,0,1,2.14-.92,2.11,2.11,0,0,1,1.76.72,2.22,2.22,0,0,1,.43.91.77.77,0,0,0,.11.3.24.24,0,0,0,.17.1.48.48,0,0,1,.2.15l.19.25c.1.12.1.23,0,.31l-2.08,1.74q-.17.13-.27,0l-.25-.29a.21.21,0,0,1-.07-.2,3.36,3.36,0,0,1,.34-.49c.76-1,.94-1.68.57-2.12a.92.92,0,0,0-.78-.32,1.53,1.53,0,0,0-.87.37,2.69,2.69,0,0,0-.73,1,8,8,0,0,0-.41,2.06,10.07,10.07,0,0,1-.62,2.83,5,5,0,0,1-1.34,1.75,3.87,3.87,0,0,1-2.47,1,2.48,2.48,0,0,1-2-.86,3.49,3.49,0,0,1-.57-1.07.73.73,0,0,0-.12-.3.4.4,0,0,0-.2-.1.39.39,0,0,1-.15-.08"/></g><g id="g3419"><path id="path3421" class="cls-3" d="M94.75,139.94l-.06-.05-1.4-.62a.3.3,0,0,0-.19,0s-.08.1-.18.25l-.39.42-8.45,4.83a1.06,1.06,0,0,1-.81.11.35.35,0,0,0-.34.05l-.31.28c-.1.07-.07.19,0,.35l1.13,1.29c.11.13.21.13.31,0l.27-.23c.08-.07.1-.2.1-.41a.83.83,0,0,1,.17-.63l.13-.09,1.47-.82,1.47,1.65-1.08,1.39a.59.59,0,0,1-.12.13.5.5,0,0,1-.55.06.44.44,0,0,0-.42,0l-.27.23a.18.18,0,0,0,0,.25l0,0L87,150.49c.08.09.15.08.25,0l.27-.24a.3.3,0,0,0,.08-.3.74.74,0,0,1,0-.44,1.2,1.2,0,0,1,.22-.4l6.94-9c.05-.1.05-.16,0-.21m-6.47,5.52-1.1-1.27L91,142Z"/></g><g id="g3423"><path id="path3425" class="cls-3" d="M98.75,144.72l-1.49-1.66a.19.19,0,0,0-.27,0l0,0-.25.23a.39.39,0,0,0-.11.39.72.72,0,0,1-.27.65l-7.22,6.51a.76.76,0,0,1-.68.18.44.44,0,0,0-.39.07l-.28.25a.17.17,0,0,0,0,.24h0l1.73,1.91a.17.17,0,0,0,.24,0l0,0,.26-.24a.36.36,0,0,0,.11-.37.69.69,0,0,1,.27-.65l3.22-2.9q2.53,2.81,5.1.49a3.29,3.29,0,0,0,1.19-2.41,3.83,3.83,0,0,0-1.16-2.7m-.36,2.53a5.13,5.13,0,0,1-1,1.19,4.66,4.66,0,0,1-1.3.89,1.2,1.2,0,0,1-.87,0,2.72,2.72,0,0,1-.85-.69l3.69-3.3a2.34,2.34,0,0,1,.53,1,1.27,1.27,0,0,1-.17.9"/></g><g id="g3427"><path id="path3429" class="cls-3" d="M95.47,157.79a.78.78,0,0,0-.27.66.39.39,0,0,1-.1.38l-.27.24a.17.17,0,0,1-.24,0l0,0-1.73-1.9a.16.16,0,0,1,0-.22l0,0,.28-.26a.47.47,0,0,1,.39-.06.72.72,0,0,0,.69-.19l7.22-6.5a.67.67,0,0,0,.25-.65.43.43,0,0,1,.11-.38l.28-.26a.2.2,0,0,1,.28,0l1.71,1.91a.17.17,0,0,1,0,.24h0l-.28.25a.43.43,0,0,1-.4.06.8.8,0,0,0-.67.19Z"/></g><g id="g3431"><path id="path3433" class="cls-3" d="M99.45,164.29l-3.78-4.11a.15.15,0,0,1,0-.27l.25-.26a.55.55,0,0,1,.46-.07.64.64,0,0,0,.59-.23l7.1-6.62a.78.78,0,0,0,.27-.66.37.37,0,0,1,.08-.37l.3-.27q.1-.11.24,0l2.87,3.09.31.29c.15.12.23.23.27.25s.15.23.07.3l-1.81,1.69c-.08.08-.15.13-.18.12a.21.21,0,0,1-.17-.12l-.21-.22a.23.23,0,0,1,0-.33,3.89,3.89,0,0,0,.58-1,1,1,0,0,0-.32-1l-.7-.75L102.34,157l.25.27a.66.66,0,0,0,.43.25,2.8,2.8,0,0,0,.84-.34l.25-.11s.07,0,.12.11l.25.26a.2.2,0,0,1,0,.28l0,0-2.27,2.11a.18.18,0,0,1-.25,0l0,0-.26-.27a.17.17,0,0,1-.07-.17,1.42,1.42,0,0,1,.18-.37,1.38,1.38,0,0,0,.31-.71,1,1,0,0,0-.24-.46l-.22-.23-3.79,3.55.76.81a1,1,0,0,0,.78.42,5.44,5.44,0,0,0,1.58-.65c.19-.1.32-.1.42,0l.23.25a.19.19,0,0,1,0,.27l0,0Z"/></g><g id="g3435"><path id="path3437" class="cls-3" d="M107.58,164.47l3-6.4a.46.46,0,0,0,.07-.25.62.62,0,0,0-.15-.21l-1.2-1.25c-.1-.11-.18-.12-.28,0l-.26.24a.38.38,0,0,0-.08.39.85.85,0,0,1-.25.67l-7,6.74a.78.78,0,0,1-.67.23.36.36,0,0,0-.38.08l-.27.25a.16.16,0,0,0,0,.22l0,0,1.29,1.32a.19.19,0,0,0,.26.06h0l.27-.28a.42.42,0,0,0,.08-.38.7.7,0,0,1,.23-.67l5.48-5.31-4.07,8.64a.34.34,0,0,0,0,.42l.26.26a.22.22,0,0,0,.31,0l0,0,7.94-7.67a.71.71,0,0,1,.68-.22.48.48,0,0,0,.39-.07l.27-.27a.17.17,0,0,0,0-.24h0l-1.3-1.33c-.1-.12-.2-.12-.28,0l-.26.24a.44.44,0,0,0-.09.39.72.72,0,0,1-.23.66Z"/></g><g id="g3439"><path id="path3441" class="cls-3" d="M116.49,165l.27.25a.69.69,0,0,1,.23.55,2.87,2.87,0,0,1-.44.87,4.11,4.11,0,0,0-.29.46.29.29,0,0,0,.09.24l.21.22a.2.2,0,0,0,.28,0l0,0,1.73-1.73a.2.2,0,0,0,0-.28l0,0-.42-.33-.46-.32-2.06-2a10.27,10.27,0,0,1-.64-.81c-.17-.21-.29-.38-.35-.44a.24.24,0,0,0-.33-.06l-.06.06-1.69,1.68a.23.23,0,0,0,0,.32l0,0,.22.23a.15.15,0,0,0,.21,0h0a4.26,4.26,0,0,1,1.18-.7.64.64,0,0,1,.64.22l.24.24L107.84,171a.7.7,0,0,1-.67.23c-.18,0-.3,0-.38.09l-.28.27a.17.17,0,0,0,0,.24h0l1.81,1.81c.1.1.2.12.28,0l.26-.26a.39.39,0,0,0,.08-.37.73.73,0,0,1,.23-.68Z"/></g><g id="g3443"><path id="path3445" class="cls-3" d="M113.24,176.22a.8.8,0,0,0-.22.69.35.35,0,0,1-.07.38l-.26.28a.18.18,0,0,1-.25,0l0,0-1.84-1.78a.14.14,0,0,1,0-.19l0,0,.26-.28a.43.43,0,0,1,.38-.09.76.76,0,0,0,.68-.25l6.74-7a.76.76,0,0,0,.22-.67.42.42,0,0,1,.08-.39l.25-.25a.17.17,0,0,1,.28,0l1.85,1.76a.19.19,0,0,1,0,.26l-.26.27a.41.41,0,0,1-.38.09.75.75,0,0,0-.66.23Z"/></g><g id="g3447"><path id="path3449" class="cls-3" d="M124.94,171.78h-.06l-1.47-.47a.17.17,0,0,0-.17,0,2.45,2.45,0,0,0-.16.26l-.34.46-7.91,5.68a1.06,1.06,0,0,1-.8.2.31.31,0,0,0-.31.09l-.3.3c-.08.1-.07.22.09.34l1.26,1.17c.11.11.2.12.3,0l.25-.26c.08-.08.08-.2.07-.43a1.17,1.17,0,0,1,.09-.63l.13-.11,1.38-1,1.56,1.46-.92,1.49-.12.16a.56.56,0,0,1-.56.12c-.17-.05-.32-.05-.4.05l-.24.26a.19.19,0,0,0,0,.3l2,1.86c.09.08.16.06.27,0l.23-.27a.31.31,0,0,0,.05-.32,1.06,1.06,0,0,1-.06-.43.93.93,0,0,1,.18-.42l5.95-9.67c.06-.08.06-.15,0-.2m-5.85,6.17-1.24-1.15,3.5-2.5Z"/></g><g id="g3451"><path id="path3453" class="cls-3" d="M123.49,183.47l2.39,2.07,1-1.15-2.39-2.07Z"/></g><g id="g3455"><g id="g3457"><g id="g3463"><path id="path3465" class="cls-3" d="M137.59,186.44,131.47,194a.74.74,0,0,0-.13.72.44.44,0,0,1-.05.38l-.23.3a.2.2,0,0,1-.28,0h0l-2-1.62a.16.16,0,0,1,0-.22l0,0,.24-.29a.43.43,0,0,1,.38-.13.73.73,0,0,0,.64-.3l3-3.65L131.47,188l-2.94,3.66a.7.7,0,0,0-.16.7.39.39,0,0,1,0,.39l-.23.28a.17.17,0,0,1-.24,0l0,0-2-1.62a.18.18,0,0,1,0-.25l.24-.28c.07-.11.19-.14.38-.12a.77.77,0,0,0,.64-.32l6.1-7.56a.65.65,0,0,0,.14-.67.46.46,0,0,1,.05-.4l.22-.28a.19.19,0,0,1,.27,0l0,0,2,1.59a.18.18,0,0,1,0,.25h0l-.23.3a.37.37,0,0,1-.37.12.79.79,0,0,0-.65.3l-2.43,3,1.48,1.19,2.43-3a.68.68,0,0,0,.13-.69.38.38,0,0,1,0-.39l.22-.29a.19.19,0,0,1,.27,0l0,0,2,1.59a.18.18,0,0,1,.07.25l0,0-.26.29a.38.38,0,0,1-.37.12.74.74,0,0,0-.64.3"/></g><g id="g3467"><path id="path3469" class="cls-3" d="M142.54,188.24a2.72,2.72,0,0,0-3-.12,12.11,12.11,0,0,0-3.63,3.29,10.91,10.91,0,0,0-2.25,4.29,2.71,2.71,0,0,0,.93,2.93,2.68,2.68,0,0,0,2.87.13,10.42,10.42,0,0,0,3.72-3.36,10.63,10.63,0,0,0,2.31-4.38,2.73,2.73,0,0,0-.91-2.78m-.73,2.67a18.69,18.69,0,0,1-1.47,2.21c-.74.93-1.59,1.92-2.52,3a7,7,0,0,1-1.95,1.78.82.82,0,0,1-.82,0c-.34-.26-.39-.71-.13-1.35a12.48,12.48,0,0,1,1.79-2.81c.78-1,1.52-1.91,2.29-2.76a17.14,17.14,0,0,1,1.62-1.69,1.68,1.68,0,0,1,.8-.43.79.79,0,0,1,.57.15.67.67,0,0,1,.28.61,3.91,3.91,0,0,1-.45,1.31"/></g><g id="g3471"><path id="path3473" class="cls-3" d="M139.59,200.41a.78.78,0,0,1-.62.33.49.49,0,0,0-.39.13l-.23.32a.15.15,0,0,0,0,.21l0,0,1.47,1.11c.11.08.19.08.27,0l.23-.28a.41.41,0,0,0,0-.4.74.74,0,0,1,.14-.7l6-8L141,203.38l.5.39,8.33-8.09-6,7.94a.71.71,0,0,1-.64.33.38.38,0,0,0-.35.13l-.23.3a.16.16,0,0,0,0,.22l0,0,2,1.49a.2.2,0,0,0,.28,0h0l.22-.3a.46.46,0,0,0,0-.37.73.73,0,0,1,.13-.71l5.82-7.77a.71.71,0,0,1,.63-.31.34.34,0,0,0,.36-.15l.23-.29a.17.17,0,0,0,0-.24l0,0-2.38-1.78-4.33,4.21,2.85-5.33-2.37-1.77c-.13-.1-.2-.09-.29,0l-.21.29a.41.41,0,0,0,0,.41.7.7,0,0,1-.14.69Z"/></g><g id="g3475"><path id="path3477" class="cls-3" d="M156,198.63a2.66,2.66,0,0,0-3,0,14,14,0,0,0-5.64,7.77,2.72,2.72,0,0,0,1,2.89,2.62,2.62,0,0,0,2.87,0,10.92,10.92,0,0,0,3.62-3.47,10.57,10.57,0,0,0,2.13-4.48,2.67,2.67,0,0,0-1-2.74m-.65,2.69a15.37,15.37,0,0,1-1.41,2.26c-.68,1-1.48,2-2.39,3.1a7.13,7.13,0,0,1-1.89,1.86.83.83,0,0,1-.82,0c-.34-.24-.4-.68-.17-1.34a13,13,0,0,1,1.71-2.87c.72-1,1.44-2,2.19-2.85a18.28,18.28,0,0,1,1.56-1.76,1.88,1.88,0,0,1,.78-.46.86.86,0,0,1,.58.15.67.67,0,0,1,.29.59,3.32,3.32,0,0,1-.41,1.33"/></g></g></g><g id="g3479"><path id="path3481" class="cls-3" d="M156.73,210.52l2.5,1.93.93-1.2-2.49-1.94Z"/></g><g id="g3491"><path id="path3493" class="cls-3" d="M168.2,215.61l3.2-4.32a.75.75,0,0,0,.14-.69.44.44,0,0,1,0-.39l.22-.29c.07-.1.17-.11.28,0l1.48,1.11a.16.16,0,0,1,.07.22l0,0-.23.3a.44.44,0,0,1-.36.15.71.71,0,0,0-.64.31l-6.6,8.85a.24.24,0,0,1-.32.1l0,0-.27-.22a.37.37,0,0,1-.12-.41l2.61-9.21-4.54,6.11a.74.74,0,0,0-.13.71.4.4,0,0,1,0,.4l-.22.3a.18.18,0,0,1-.25,0l0,0-1.49-1.11a.15.15,0,0,1,0-.21l0,0,.22-.3a.37.37,0,0,1,.37-.14.71.71,0,0,0,.62-.33l5.81-7.79a.74.74,0,0,0,.13-.69.36.36,0,0,1,0-.4l.21-.29a.18.18,0,0,1,.25,0l0,0,1.4,1a.43.43,0,0,1,.17.19.32.32,0,0,1,0,.26Z"/></g><g id="g3495"><path id="path3497" class="cls-3" d="M177.21,213.63a.17.17,0,0,0,0-.2.07.07,0,0,0-.07,0l-1.52-.23c-.08,0-.14,0-.17.05a1.91,1.91,0,0,0-.13.28l-.25.51-6.88,6.88a1,1,0,0,1-.75.34.32.32,0,0,0-.31.13l-.25.35c-.05.1,0,.21.14.33l1.44,1c.13.08.23.07.29,0l.21-.29c.06-.1,0-.23,0-.42a.93.93,0,0,1,0-.65l.12-.12,1.21-1.19,1.78,1.19-.67,1.63a.74.74,0,0,1-.09.16.49.49,0,0,1-.54.21.52.52,0,0,0-.39.11l-.18.31a.18.18,0,0,0,0,.25l.05,0,2.28,1.53a.27.27,0,0,0,.24-.08l.22-.3a.31.31,0,0,0,0-.32,1,1,0,0,1-.12-.41,1.12,1.12,0,0,1,.12-.44Zm-4.82,6.84-1.41-.94,3-3Z"/></g><g id="g3499"><path id="path3501" class="cls-3" d="M182.06,218l-5.56,8.64a.77.77,0,0,0-.07.72.46.46,0,0,1,0,.38l-.22.32c-.07.11-.15.11-.27,0l-2.16-1.38c-.09-.08-.12-.15-.06-.25l.22-.32a.38.38,0,0,1,.36-.16.73.73,0,0,0,.6-.38l5.57-8.57-.32-.2a.68.68,0,0,0-.67-.07,4.51,4.51,0,0,0-1,.95.17.17,0,0,1-.23,0l-.28-.17a.24.24,0,0,1-.11-.32l0,0,1.28-2a.25.25,0,0,1,.38-.09,5.56,5.56,0,0,1,.47.37,5.16,5.16,0,0,0,.8.63l2.44,1.56a2.6,2.6,0,0,0,.5.22,3.44,3.44,0,0,0,.49.23.19.19,0,0,1,.07.3L183,220.44c-.08.13-.19.17-.29.08l-.28-.17c-.11-.06-.14-.13-.12-.21a1.87,1.87,0,0,1,.18-.51,2.82,2.82,0,0,0,.24-.93.62.62,0,0,0-.34-.47Z"/></g><g id="g3503"><path id="path3505" class="cls-3" d="M184.83,230.31l4.36-7a.71.71,0,0,1,.6-.39.35.35,0,0,0,.34-.17l.22-.33a.16.16,0,0,0-.05-.22h0l-1.56-1a.18.18,0,0,0-.25,0l0,0-.18.29a.42.42,0,0,0,0,.41.65.65,0,0,1-.07.7l-4.31,7c-.71,1.13-1.42,1.47-2.1,1.05s-.66-1.07-.08-2l4.48-7.26a.73.73,0,0,1,.6-.38.36.36,0,0,0,.34-.18l.21-.32a.15.15,0,0,0,0-.21l0,0L185.09,219c-.14-.07-.22-.05-.29.06l-.18.32a.44.44,0,0,0,0,.39.68.68,0,0,1-.06.69l-4.44,7.21a3.08,3.08,0,0,0-.49,2.22,2.62,2.62,0,0,0,1.25,1.75,2.53,2.53,0,0,0,2.1.31,3.2,3.2,0,0,0,1.84-1.56"/></g><g id="g3507"><path id="path3509" class="cls-3" d="M195.12,225.84a4.22,4.22,0,0,0-2-2.08l-1.88-1.06a.22.22,0,0,0-.28.05l-.18.32a.35.35,0,0,0,0,.39.69.69,0,0,1,0,.7l-4.8,8.43a.72.72,0,0,1-.6.41.41.41,0,0,0-.35.18l-.18.33a.32.32,0,0,0,.06.24l2.22,1.27c.13.06.22.05.28-.06l.18-.33a.38.38,0,0,0,0-.38.72.72,0,0,1,.07-.72l2.2-3.86a.79.79,0,0,1,.37.47,2.25,2.25,0,0,1-.13,1l-1.28,4.47a.31.31,0,0,0,.14.38l1.44.82c.1.06.17,0,.23-.07l.23-.4a.13.13,0,0,0,0-.17,1.13,1.13,0,0,1-.15-.47,2.15,2.15,0,0,1,.14-.7l.77-2.57a2.43,2.43,0,0,0-.4-2.46,3.06,3.06,0,0,0,3.58-1.65,3,3,0,0,0,.35-2.54m-2.06,1.64a3.77,3.77,0,0,1-1.42,1.58,1.59,1.59,0,0,1-1.41-.17l2.37-4.19a1.68,1.68,0,0,1,.92,1,2.79,2.79,0,0,1-.53,1.79"/></g><g id="g3511"><path id="path3513" class="cls-3" d="M200.85,228.33c0-.11,0-.17-.06-.2h-.08l-1.51-.1c-.11,0-.17,0-.18.06s-.05.11-.11.29l-.2.53-6.25,7.45a1,1,0,0,1-.72.4.3.3,0,0,0-.29.17l-.21.38c-.06.11,0,.21.15.31l1.52.81c.12.09.23.07.29-.05l.18-.31a.55.55,0,0,0,0-.42.6.6,0,0,1,0-.77l1.1-1.29,1.87,1-.53,1.67c0,.06-.05.12-.06.17a.55.55,0,0,1-.52.25.43.43,0,0,0-.39.16l-.17.33c-.06.11,0,.19.1.27l2.41,1.32c.1.05.17,0,.23-.1l.17-.32a.29.29,0,0,0,0-.32.86.86,0,0,1-.15-.4,1.41,1.41,0,0,1,.07-.45Zm-4.2,7.22-1.48-.8,2.77-3.29Z"/></g></g><g id="tochas"><g id="g3515"><path id="path3517" class="cls-3" d="M116.87,65.33c-1.41-7.33-1.36-13.51,2.8-18.85-5.48,1.54-8.43,8-11.71,17.5-7.91-8.45-1-17.79-1.34-25.51C100.05,42.73,96.87,51.81,95.47,64c-3.54-3.58-5.55-10.18-3.56-16.91-5.35,1.47-5.68,8.83-4.3,18.23C62.33,39,97.67,39.76,102.59,28.11c7.61-18,19.5-18.27,28.17-22.12A67.09,67.09,0,0,0,118,30.46c-.76,2.92-3.17,5.14-4.74,7.71,8.19-.75,12.76-6.42,15.42-14.68,2.2,5.24,5.51,15.06-1.08,22.38-4.15,4.61,3,15.94-10.72,19.45"/></g><g id="g3519"><path id="path3521" class="cls-3" d="M179.28,64.91c-1.37-7.1-1.31-13.09,2.67-18.27-5.33,1.5-8.18,7.75-11.35,17-7.67-8.19-1-17.24-1.31-24.71-6.32,4.12-9.4,12.92-10.76,24.71-3.43-3.47-5.38-9.86-3.45-16.39-5.16,1.43-5.5,8.57-4.16,17.67-24.5-25.48,10.84-27.69,10.52-37.28C160.88,9.26,169.5,3.72,177.89,0c-6.57,7.9-7.26,18.64-2.34,23.29,2.13,2,2.23,10.08.69,12.58,8-.73,4.61-4.73,7.19-12.73,2.14,5.08,12.63,15.86,6.24,22.93-4,4.47,2.9,15.45-10.39,18.85"/></g><g id="g3523"><path id="path3525" class="cls-3" d="M217.09,63.91c1.42-7.32,1.36-13.51-2.75-18.85,5.46,1.54,8.43,8,11.71,17.49,7.91-8.46,1-17.81,1.33-25.51,6.53,4.26,9.73,13.35,11.11,25.51,3.54-3.58,5.57-10.18,3.57-16.91,5.34,1.47,5.68,8.85,4.3,18.24,25.28-26.3-10.07-25.55-15-37.2-7.61-18-19.5-18.28-28.15-22.11A66.93,66.93,0,0,1,216,29c.76,2.92,3.17,5.14,4.75,7.72C212.53,36,207.94,30.29,205.28,22c-2.19,5.24-5.51,15.07,1.09,22.39,4.15,4.61-3,15.94,10.72,19.45"/></g><g id="g3527"><path id="path3529" class="cls-3" d="M150.67,82.9H183.2a3.82,3.82,0,0,1,3.8,3.82v7.91a3.81,3.81,0,0,1-3.8,3.81H150.67a3.82,3.82,0,0,1-3.82-3.81V86.71a3.83,3.83,0,0,1,3.82-3.81"/></g><g id="g3531"><path id="path3533" class="cls-3" d="M148.92,71.41H185a2,2,0,0,1,2,2V77.6a2,2,0,0,1-2,2H148.92a2,2,0,0,1-2-2V73.43a2,2,0,0,1,2-2"/></g><g id="g3535"><path id="path3537" class="cls-3" d="M88.77,83.05h32.54a3.82,3.82,0,0,1,3.8,3.81v7.91a3.81,3.81,0,0,1-3.8,3.81H88.77A3.83,3.83,0,0,1,85,94.77v-7.9a3.84,3.84,0,0,1,3.82-3.81"/></g><g id="g3539"><path id="path3541" class="cls-3" d="M87,71.56h36.11a2,2,0,0,1,2,2v4.19a2,2,0,0,1-2,2H87a2,2,0,0,1-2-2V73.59a2,2,0,0,1,2-2"/></g><g id="g3543"><path id="path3545" class="cls-3" d="M212.67,82.42h32.54a3.83,3.83,0,0,1,3.8,3.82v7.91a3.83,3.83,0,0,1-3.8,3.82H212.67a3.83,3.83,0,0,1-3.8-3.82V86.23a3.82,3.82,0,0,1,3.8-3.82"/></g><g id="g3547"><path id="path3549" class="cls-3" d="M210.88,70.94H247a2,2,0,0,1,2,2v4.19a2,2,0,0,1-2,2h-36.1a2,2,0,0,1-2-2V73a2,2,0,0,1,2-2"/></g></g><g id="Layer_2-2" data-name="Layer 2"><path class="cls-5" d="M68,210c-4.05.89-8.41,4.42-7.27,12.21h0c-24-7.56-44.2-3.7-59,16.86h0c10.24-6.72,20.93-6.73,31.87-2.91h0C19,244.23,8.17,254,1.39,265.64h0c7.28-3.84,17.28-12.17,32.5-13.27h0c21.68,2.71,34.51,11.08,54.71,16.42h0c2.13-7.81,3.84-14.31,5.28-20h0q67.29,36.58,146.21,1.59h0q1.64,9.36,3.27,18.71h0c10.14.54,22.43-5.48,32-8.7h0c18.15-10.81,37.41-7.47,52.9,5h0V262.9c-5.8-10.73-16.82-18.92-29.17-26h0c10.8-2.14,20.66-.28,29.17,2.89h0v-1.32c-11-10.38-17.76-22.79-55.8-16.57h0c-.43-8.39-8.17-12-10.8-10.55h0C200,245.07,158.16,264.23,72.26,210h0l-.3-.09H68Z"/><g id="brasao"><g class="cls-6"><g id="faixa-group"><g id="g3557"><g id="g3563"><g id="g3565"><path id="path3573" class="cls-4" d="M68,210c-4.05.89-8.41,4.42-7.27,12.21h0c-24-7.56-44.2-3.7-59,16.86h0c10.24-6.72,20.93-6.73,31.87-2.91h0C19,244.23,8.17,254,1.39,265.64h0c7.28-3.84,17.28-12.17,32.5-13.27h0c21.68,2.71,34.51,11.08,54.71,16.42h0c2.13-7.81,3.84-14.31,5.28-20h0q67.29,36.58,146.21,1.59h0q1.64,9.36,3.27,18.71h0c10.14.54,22.43-5.48,32-8.7h0c18.15-10.81,37.41-7.47,52.9,5h0V262.9c-5.8-10.73-16.82-18.92-29.17-26h0c10.8-2.14,20.66-.28,29.17,2.89h0v-1.32c-11-10.38-17.76-22.79-55.8-16.57h0c-.43-8.39-8.17-12-10.8-10.55h0C200,245.07,158.16,264.23,72.26,210h0l-.3-.09H68Z"/></g></g></g><g id="faixa"><path class="cls-3" d="M59.67,241.81V243c.84,4.5,10.44,12.66,30.14,21.28h0c1.56-5.8,2.88-10.85,4-15.39h0c-13.54-6.74-23.34-9.5-28.9-9.5h0c-3.13,0-4.92.88-5.26,2.42"/><g id="g3575"><g class="cls-7"><g id="g3577"><g id="g3583"><g id="g3585"><path id="path3593" class="cls-3" d="M59.67,241.81V243c.84,4.5,10.44,12.66,30.14,21.28h0c1.56-5.8,2.88-10.85,4-15.39h0c-13.54-6.74-23.34-9.5-28.9-9.5h0c-3.13,0-4.92.88-5.26,2.42"/></g></g></g></g></g><g id="faixa-luz"><path class="cls-3" d="M238.44,251h0l1.64-.72h0q1.39,7.92,2.76,15.82h0c20-8.71,29.77-17,30.57-21.5h0v-1.12c-.32-1.56-2.1-2.45-5.25-2.45h0c-5.66,0-15.75,2.88-29.72,9.93"/><g id="g3595"><g class="cls-8"><g id="g3597"><g id="g3603"><g id="g3605"><path id="path3613" class="cls-3" d="M238.44,251h0l1.64-.72h0q1.39,7.92,2.76,15.82h0c20-8.71,29.77-17,30.57-21.5h0v-1.12c-.32-1.56-2.1-2.45-5.25-2.45h0c-5.66,0-15.75,2.88-29.72,9.93"/></g></g></g></g></g></g><path class="cls-9" d="M68,210c-4.05.89-8.41,4.42-7.27,12.21h0c-24-7.56-44.2-3.7-59,16.86h0c10.24-6.72,20.93-6.73,31.87-2.91h0C19,244.23,8.17,254,1.39,265.64h0c7.28-3.84,17.28-12.17,32.5-13.27h0c21.68,2.71,34.51,11.08,54.71,16.42h0c2.13-7.81,3.84-14.31,5.28-20h0q67.29,36.58,146.21,1.59h0q1.64,9.36,3.27,18.71h0c10.14.54,22.43-5.48,32-8.7h0c18.15-10.81,37.41-7.47,52.9,5h0V262.9c-5.8-10.73-16.82-18.92-29.17-26h0c10.8-2.14,20.66-.28,29.17,2.89h0v-1.32c-11-10.38-17.76-22.79-55.8-16.57h0c-.43-8.39-8.17-12-10.8-10.55h0C200,245.07,158.16,264.23,72.26,210h0l-.3-.09H68Z"/></g></g><g id="faixa-texto"><g id="g3627"><path id="path3629" class="cls-10" d="M80.25,230.63l1.36,5,1.26-2.35a1,1,0,0,0,.15-.73,1.16,1.16,0,0,0-.46-.52l.05-.11,1.77.94-.06.09a.84.84,0,0,0-.52-.06.77.77,0,0,0-.35.18,3,3,0,0,0-.25.39L81,237.67l-.13-.06-1.66-5.92-1.49,2.84a1.32,1.32,0,0,0-.18.71.76.76,0,0,0,.42.58v.11l-1.83-1,.05-.1a.81.81,0,0,0,1.12-.25l.05-.1,1.79-3.39V231a.56.56,0,0,0-.05-.17c0-.07-.06-.14-.07-.19a2,2,0,0,0-.55-.95l.06-.1Z"/></g><g id="g3631"><path id="path3633" class="cls-10" d="M72.36,226.79l-.07.13a1.53,1.53,0,0,1,.42.28.54.54,0,0,1,.07.27,1.59,1.59,0,0,1-.23.58l-1.29,2.54a2.28,2.28,0,0,0-.33,1.13,1.74,1.74,0,0,0,.38,1,2.48,2.48,0,0,0,1,.72,2.29,2.29,0,0,0,1.43.32,1.67,1.67,0,0,0,1-.44,6.12,6.12,0,0,0,.8-1.26l1-2a1.46,1.46,0,0,1,.27-.43.63.63,0,0,1,.34-.14.77.77,0,0,1,.41.08l.11.06.08-.14L76,228.58l-.08.13a1.45,1.45,0,0,1,.45.34.58.58,0,0,1,.08.31,1.22,1.22,0,0,1-.18.54L75.06,232a3.58,3.58,0,0,1-.74,1.08,1.24,1.24,0,0,1-.7.29,1.31,1.31,0,0,1-.81-.18,1.23,1.23,0,0,1-.54-.46.87.87,0,0,1-.15-.54,3,3,0,0,1,.36-1l1.31-2.53a2.63,2.63,0,0,1,.33-.54.41.41,0,0,1,.24-.07,1,1,0,0,1,.45.13l.12.08.08-.14Z"/></g><g id="g3635"><path id="path3637" class="cls-10" d="M85.05,232.73a.75.75,0,0,1,.39.41.76.76,0,0,1-.13.6l-1.9,3.59a.92.92,0,0,1-.38.42c-.14.08-.34.05-.62-.09v.1l2.4,1.29.05-.1h0a.69.69,0,0,1-.35-.32.58.58,0,0,1,0-.34,2.46,2.46,0,0,1,.13-.33l1.91-3.59a.87.87,0,0,1,.38-.42c.14-.08.34,0,.62.09v-.11l-2.41-1.27Z"/></g><g id="g3639"><path id="path3641" class="cls-10" d="M93.37,236.48v.11a1,1,0,0,0-.6,0,2.15,2.15,0,0,0-.84.57l-3.55,3.36-.14-.07.5-5.34a1.56,1.56,0,0,0,0-.66,1,1,0,0,0-.45-.45l.06-.1,2.35,1.2v.09a1.09,1.09,0,0,0-.32-.08c-.09,0-.16.06-.22.18a1.79,1.79,0,0,0-.1.42l-.39,3,2-1.84a1.6,1.6,0,0,0,.35-.45.52.52,0,0,0,0-.32c0-.13-.12-.26-.33-.4l.06-.1Z"/></g><g id="g3643"><path id="path3645" class="cls-10" d="M97.67,238.2l-3.79-1.76v.1h0c.27.12.42.27.44.44a1.12,1.12,0,0,1-.13.54l-1.73,3.67a.78.78,0,0,1-.34.44.71.71,0,0,1-.62-.07l-.05.1,4,1.85.66-1.23H96a2.1,2.1,0,0,1-.51.48.84.84,0,0,1-.47.14,1.69,1.69,0,0,1-.58-.16l-.32-.15a.66.66,0,0,1-.37-1l.71-1.52.84.4a1.14,1.14,0,0,1,.42.35.64.64,0,0,1,.05.6h.1l.72-1.55h-.1a.83.83,0,0,1-.44.39.84.84,0,0,1-.64-.08l-.85-.4,1-2.21,1.06.49a.72.72,0,0,1,.39.3.74.74,0,0,1,.11.41,3.28,3.28,0,0,1-.06.56l.09.06Z"/></g><g id="g3647"><path id="path3649" class="cls-10" d="M102.45,241.45a1.43,1.43,0,0,0-.44-.74,2.6,2.6,0,0,0-.88-.58l-2.78-1.19-.05.12a.85.85,0,0,1,.45.36.91.91,0,0,1-.08.58l-1.58,3.74a1.5,1.5,0,0,1-.33.46.69.69,0,0,1-.62,0l-.06.11,2.51,1.06v-.1a1.43,1.43,0,0,1-.34-.2.49.49,0,0,1-.13-.28.93.93,0,0,1,.1-.49l.72-1.7.17.07a1,1,0,0,1,.48.36,1.64,1.64,0,0,1,.2.65c0,.28.08.74.13,1.42a8.88,8.88,0,0,0,.08.89l1.71.73.05-.1a.85.85,0,0,1-.21-.16,1.06,1.06,0,0,1-.15-.32,2.18,2.18,0,0,1-.12-.56l-.2-1.36a2.49,2.49,0,0,0-.36-1.12,2.42,2.42,0,0,0,.62,0,1.56,1.56,0,0,0,.55-.26,1.22,1.22,0,0,0,.37-.53,1.24,1.24,0,0,0,.1-.8m-1.33.29a1.18,1.18,0,0,1-.67.73,1.4,1.4,0,0,1-1.06-.11l-.25-.09,1-2.24.3.12a2,2,0,0,1,.61.4.92.92,0,0,1,.25.55,1.2,1.2,0,0,1-.12.64"/></g><g id="g3651"><path id="path3653" class="cls-10" d="M107.26,244l-.14-.05a1.73,1.73,0,0,0-.15-1,1.28,1.28,0,0,0-.65-.6,1.18,1.18,0,0,0-.44-.07.74.74,0,0,0-.4.15,1,1,0,0,0-.26.33.6.6,0,0,0,0,.27.67.67,0,0,0,.07.38,2.71,2.71,0,0,0,.34.58l.34.46a9.52,9.52,0,0,1,.52.85,1.67,1.67,0,0,1,.23.73,1.39,1.39,0,0,1-.11.7,1.53,1.53,0,0,1-.38.55,1.44,1.44,0,0,1-.55.35,2.16,2.16,0,0,1-.69.08,2.64,2.64,0,0,1-.77-.18,3.9,3.9,0,0,1-.86-.52l-.13-.11-.14-.07a.3.3,0,0,0-.33.07h-.12l.64-1.5h.15a1.58,1.58,0,0,0,0,.85,1.51,1.51,0,0,0,.35.64,1.43,1.43,0,0,0,.5.35,1.12,1.12,0,0,0,.77,0,.7.7,0,0,0,.47-.45.66.66,0,0,0,.05-.42,1.44,1.44,0,0,0-.22-.47c-.1-.15-.29-.46-.6-.88a5.06,5.06,0,0,1-.39-.63,4.4,4.4,0,0,1-.21-.53,1.3,1.3,0,0,1,0-.43,1.44,1.44,0,0,1,.1-.41,1.64,1.64,0,0,1,.53-.7,1.77,1.77,0,0,1,.83-.4,1.64,1.64,0,0,1,.94.09,2.25,2.25,0,0,1,.41.23l.12.08.14.11.23.12a.46.46,0,0,0,.2,0,.54.54,0,0,1,.13-.06h.12Z"/></g><g id="g3655"><path id="path3657" class="cls-10" d="M108.83,243.67a.65.65,0,0,1,.39,1l-1.55,3.75a1,1,0,0,1-.33.45.66.66,0,0,1-.62,0v.1l2.53,1v-.1h0a.63.63,0,0,1-.37-.29.48.48,0,0,1-.08-.33,1.79,1.79,0,0,1,.09-.33l1.53-3.77a1.05,1.05,0,0,1,.33-.45.6.6,0,0,1,.62,0l.05-.1-2.52-1Z"/></g><g id="g3659"><path id="path3661" class="cls-10" d="M116.93,247.29a3,3,0,0,0-.74-1,3.94,3.94,0,0,0-1.24-.7l-3-1.09-.05.11H112c.27.1.42.24.44.41a1.13,1.13,0,0,1-.07.54l-1.38,3.82a1.08,1.08,0,0,1-.32.46.67.67,0,0,1-.62,0V250l3.12,1.14a3.42,3.42,0,0,0,1.31.25,2.55,2.55,0,0,0,1.13-.23,2.58,2.58,0,0,0,1.42-1.64,2.92,2.92,0,0,0-.06-2.25m-1,.88a4.29,4.29,0,0,1-.2.93,3.48,3.48,0,0,1-.42.79,2.2,2.2,0,0,1-.57.62,1.72,1.72,0,0,1-.73.35,1.93,1.93,0,0,1-.56,0,3.35,3.35,0,0,1-.59-.16,1.42,1.42,0,0,1-.5-.27.47.47,0,0,1-.16-.34,1.6,1.6,0,0,1,.1-.49l1.47-4a2.58,2.58,0,0,1,.54.13,2.68,2.68,0,0,1,1,.65,1.86,1.86,0,0,1,.5.86,2.47,2.47,0,0,1,.09.95"/></g><g id="g3663"><path id="path3665" class="cls-10" d="M122,253.54a1.07,1.07,0,0,1-.19-.61l-.3-5.36-.72-.24-3,3.92a2.36,2.36,0,0,1-.69.65.85.85,0,0,1-.56.08v.12l1.67.53v-.1a1.23,1.23,0,0,1-.33-.23.41.41,0,0,1,0-.4,1.06,1.06,0,0,1,.2-.34l.75-1,1.65.54.07,1.32v.34a1.19,1.19,0,0,1,0,.15c-.07.2-.29.25-.63.16l-.05.1,2.61.86v-.11a1.2,1.2,0,0,1-.44-.36m-3-3.32,1.27-1.64.11,2.08Z"/></g><g id="g3667"><path id="path3669" class="cls-10" d="M130.16,251.93a3.06,3.06,0,0,0-.34-1.09,3,3,0,0,0-.79-.92,3.93,3.93,0,0,0-1.28-.59l-3-.9v.11h-.08c.27.1.43.22.47.39a1.17,1.17,0,0,1,0,.54L124,253.36a.86.86,0,0,1-.28.5c-.12.12-.33.12-.61,0V254l3.2.92a3.52,3.52,0,0,0,1.33.15,2.47,2.47,0,0,0,1.11-.3,2.51,2.51,0,0,0,.82-.7,3.36,3.36,0,0,0,.49-1,3.25,3.25,0,0,0,.11-1.14m-1.42.8a3.68,3.68,0,0,1-.35.83,2.45,2.45,0,0,1-.55.66,1.37,1.37,0,0,1-1.26.39,3.82,3.82,0,0,1-.59-.11,1.46,1.46,0,0,1-.53-.25.41.41,0,0,1-.18-.34,1.38,1.38,0,0,1,.05-.47l1.19-4.09a2.83,2.83,0,0,1,.55.1,2.66,2.66,0,0,1,1.07.55,2.28,2.28,0,0,1,.56.83,2.73,2.73,0,0,1,.15.94,3.81,3.81,0,0,1-.13,1"/></g><g id="g3671"><path id="path3673" class="cls-10" d="M135.61,251.09l-.24,1.27h-.12a3.64,3.64,0,0,0,0-.56,1,1,0,0,0-.19-.39,1.08,1.08,0,0,0-.45-.23l-1.14-.26-.54,2.38.91.21a.84.84,0,0,0,.62-.05.73.73,0,0,0,.35-.48h.11l-.39,1.66h-.11a.6.6,0,0,0-.15-.56,1.1,1.1,0,0,0-.5-.25l-.92-.21-.36,1.63a.65.65,0,0,0,.39.83l.16,0,.35.08a1.42,1.42,0,0,0,.58,0,.74.74,0,0,0,.44-.24,1.68,1.68,0,0,0,.4-.57h.12l-.4,1.34-4.26-1v-.11a.63.63,0,0,0,.62-.07,1,1,0,0,0,.25-.49l.92-4a1.09,1.09,0,0,0,0-.55c0-.17-.21-.27-.5-.35h0V250Z"/></g><g id="g3675"><path id="path3677" class="cls-10" d="M143.21,252.66l-.11,1H143a1.9,1.9,0,0,0-.11-.41.47.47,0,0,0-.2-.27,1.4,1.4,0,0,0-.52-.18l-1.11-.22-.45,2.33,1,.18a1,1,0,0,0,.6,0,.62.62,0,0,0,.37-.52h.12l-.32,1.64h-.12a.69.69,0,0,0-.12-.47.65.65,0,0,0-.5-.28l-1.06-.21-.37,1.89a1,1,0,0,0,0,.56.68.68,0,0,0,.5.31h.06v.11l-2.71-.52v-.11a.68.68,0,0,0,.6-.1.86.86,0,0,0,.23-.5l.78-4a1,1,0,0,0,0-.54c0-.15-.21-.27-.5-.32h0v-.11Z"/></g><g id="g3679"><path id="path3681" class="cls-10" d="M148.1,253.53l-4.15-.65V253h0a.62.62,0,0,1,.53.31,1,1,0,0,1,0,.55l-.64,4a.92.92,0,0,1-.23.51c-.1.13-.29.16-.6.12v.11l4.31.69.32-1.37h-.12a3.53,3.53,0,0,1-.36.6.76.76,0,0,1-.42.26,1.22,1.22,0,0,1-.6,0h-.34c-.5-.09-.7-.36-.63-.83l.27-1.66.92.14a1.2,1.2,0,0,1,.51.22.68.68,0,0,1,.2.55h.11l.26-1.68h-.11a1,1,0,0,1-.29.51.89.89,0,0,1-.63.09l-.93-.15.37-2.41,1.16.18a.92.92,0,0,1,.46.18.77.77,0,0,1,.21.36,2.93,2.93,0,0,1,.09.56h.12Z"/></g><g id="g3683"><path id="path3685" class="cls-10" d="M154.84,256.33a2.9,2.9,0,0,0-.5-1,2.84,2.84,0,0,0-.95-.77,3.84,3.84,0,0,0-1.35-.41l-3.13-.39v.12h0a.54.54,0,0,1,.53.28,1.1,1.1,0,0,1,.05.56l-.49,4a1.28,1.28,0,0,1-.2.54.66.66,0,0,1-.6.13v.12l3.32.4a3.55,3.55,0,0,0,1.34,0,2.9,2.9,0,0,0,1.06-.49,2.37,2.37,0,0,0,.68-.82,2.67,2.67,0,0,0,.33-1.06,3,3,0,0,0-.07-1.14m-1.29,1a3.83,3.83,0,0,1-.22.86,2.33,2.33,0,0,1-.44.74,1.66,1.66,0,0,1-.64.49,2.51,2.51,0,0,1-.52.12,6.12,6.12,0,0,1-.62,0,1.64,1.64,0,0,1-.57-.15.54.54,0,0,1-.21-.31,2,2,0,0,1,0-.48l.51-4.23a4.59,4.59,0,0,1,.57,0,2.65,2.65,0,0,1,1.14.39,1.92,1.92,0,0,1,.69.73,2.83,2.83,0,0,1,.32.92,3.55,3.55,0,0,1,0,1"/></g><g id="g3687"><path id="path3689" class="cls-10" d="M160.06,254.72V256H160a5.37,5.37,0,0,0-.15-.56.66.66,0,0,0-.25-.34.84.84,0,0,0-.47-.15l-1.17-.08-.17,2.43.94.08a1,1,0,0,0,.62-.16.79.79,0,0,0,.25-.53h.12l-.12,1.7h-.12a.72.72,0,0,0-.26-.53,1,1,0,0,0-.54-.17l-.92-.07-.12,1.67c0,.48.2.74.7.76h.34a1.54,1.54,0,0,0,.6-.06,1,1,0,0,0,.41-.29,3.79,3.79,0,0,0,.3-.64h.12l-.18,1.39-4.37-.31v-.1c.32,0,.52,0,.61-.17a1.19,1.19,0,0,0,.19-.54l.27-4a1,1,0,0,0-.1-.55c-.05-.14-.23-.23-.53-.25h0v-.11Z"/></g><g id="g3691"><path id="path3693" class="cls-10" d="M166.67,260.63a.91.91,0,0,1-.25-.23,3.06,3.06,0,0,1-.3-.49l-.65-1.2a2.72,2.72,0,0,0-.76-.93,1.88,1.88,0,0,0,.57-.26,1,1,0,0,0,.43-.42,1.35,1.35,0,0,0,.18-.63,1.4,1.4,0,0,0-.21-.79,1.46,1.46,0,0,0-.67-.54,2.82,2.82,0,0,0-1-.22l-3-.1v.11a.62.62,0,0,1,.69.77l-.15,4.07a.8.8,0,0,1-.16.53c-.08.14-.27.19-.57.18v.12l2.73.09v-.1a1.82,1.82,0,0,1-.38-.06.41.41,0,0,1-.22-.21,1,1,0,0,1-.1-.5l.08-1.85h.18a.91.91,0,0,1,.57.18,1.68,1.68,0,0,1,.41.52c.14.25.34.67.64,1.29a7.88,7.88,0,0,0,.39.8l1.86.07v-.11l-.24-.08m-2.51-3.27a1.5,1.5,0,0,1-1,.3H163l.08-2.43h.32a2,2,0,0,1,.71.16.89.89,0,0,1,.42.43,1.13,1.13,0,0,1,.13.64,1.15,1.15,0,0,1-.36.91"/></g><g id="g3695"><path id="path3697" class="cls-10" d="M173.31,260.46a1.29,1.29,0,0,1-.37-.53l-2-5h-.74l-1.66,4.66a2.22,2.22,0,0,1-.45.84.89.89,0,0,1-.52.25v.11h1.76v-.11a1.26,1.26,0,0,1-.4-.12.39.39,0,0,1-.15-.35.92.92,0,0,1,.1-.39l.4-1.18H171l.47,1.23a1,1,0,0,0,0,.12,2,2,0,0,1,.06.2v.14c0,.22-.2.34-.57.35v.11h2.75v-.11a1.22,1.22,0,0,1-.54-.19m-3.84-2.25.69-2,.77,2Z"/></g><g id="g3699"><path id="path3701" class="cls-10" d="M179,260.53l-4.41.16v-.12c.32,0,.5-.08.58-.22a.83.83,0,0,0,.11-.55l-.13-4.07a.73.73,0,0,0-.17-.54.68.68,0,0,0-.56-.17v-.11l2.72-.1v.12c-.3,0-.52.08-.58.22a.8.8,0,0,0-.12.56l.12,3.87a.93.93,0,0,0,.16.55.7.7,0,0,0,.55.16h.4a1.58,1.58,0,0,0,.76-.25,1.84,1.84,0,0,0,.62-1h.1Z"/></g><g id="g3703"><path id="path3705" class="cls-10" d="M188.75,256.71a3.53,3.53,0,0,0-.35-1.12,2.79,2.79,0,0,0-1.85-1.39,3.85,3.85,0,0,0-1.41-.07l-3.13.39v.11h.06c.27,0,.47,0,.56.16a1,1,0,0,1,.19.53l.49,4a1.15,1.15,0,0,1-.06.57c-.07.14-.27.23-.56.26v.12l3.31-.4a4,4,0,0,0,1.29-.37,2.6,2.6,0,0,0,.89-.74,2.44,2.44,0,0,0,.49-1,3.29,3.29,0,0,0,.07-1.1m-1.36,1.07a3.54,3.54,0,0,1-.23.82,1.87,1.87,0,0,1-.52.63,2,2,0,0,1-.5.24,5.33,5.33,0,0,1-.59.13,1.58,1.58,0,0,1-.58,0,.45.45,0,0,1-.3-.23,1.33,1.33,0,0,1-.12-.47l-.52-4.21a2.7,2.7,0,0,1,1.75,0,2.13,2.13,0,0,1,.85.55,2.79,2.79,0,0,1,.5.8,3.46,3.46,0,0,1,.24.92,3.32,3.32,0,0,1,0,.89"/></g><g id="g3707"><path id="path3709" class="cls-10" d="M193.23,253.07l.24,1.27h-.11a2.37,2.37,0,0,0-.25-.5.93.93,0,0,0-.32-.28.91.91,0,0,0-.5,0l-1.14.17.36,2.41.94-.14a.8.8,0,0,0,.57-.28.7.7,0,0,0,.12-.57h.12l.28,1.69h-.12a.65.65,0,0,0-.35-.45,1.1,1.1,0,0,0-.57,0l-.93.15.27,1.65a.65.65,0,0,0,.67.63l.17,0,.34-.06a1.88,1.88,0,0,0,.58-.17,1,1,0,0,0,.32-.39,2.5,2.5,0,0,0,.17-.69h.11l.15,1.37-4.32.69v-.12a.53.53,0,0,0,.54-.28.94.94,0,0,0,.07-.56l-.63-4a1.14,1.14,0,0,0-.23-.51.56.56,0,0,0-.57-.13h-.05v-.12Z"/></g><g id="g3711"><path id="path3713" class="cls-10" d="M203.92,256.68h-.25a.76.76,0,0,1-.32-.17,2,2,0,0,1-.4-.4l-.93-1a2.45,2.45,0,0,0-1-.73,2,2,0,0,0,.5-.39,1.45,1.45,0,0,0,.3-.52,1.21,1.21,0,0,0,0-.64,1.28,1.28,0,0,0-.38-.72,1.55,1.55,0,0,0-.78-.37,3.17,3.17,0,0,0-1.05,0l-2.94.63v.11a.72.72,0,0,1,.57,0,.78.78,0,0,1,.28.54l.84,4a1,1,0,0,1,0,.55.7.7,0,0,1-.53.33V258l2.67-.58v-.1a.9.9,0,0,1-.38,0,.44.44,0,0,1-.28-.15,1.16,1.16,0,0,1-.19-.47l-.38-1.82h.16a1.09,1.09,0,0,1,.62,0,1.68,1.68,0,0,1,.52.4q.28.31.91,1.1c.15.17.33.4.59.68l1.83-.39Zm-3.49-2.57a1.53,1.53,0,0,1-.95.52l-.24.05-.51-2.38.29-.07a1.93,1.93,0,0,1,.74,0,.86.86,0,0,1,.52.3,1.34,1.34,0,0,1,.28.59,1.27,1.27,0,0,1-.13,1"/></g><g id="g3715"><path id="path3717" class="cls-10" d="M209.6,252.31a2.73,2.73,0,0,0-.46-1.05,2.87,2.87,0,0,0-.8-.79,3,3,0,0,0-1.07-.39,3.79,3.79,0,0,0-2.49.62,2.86,2.86,0,0,0-.77.85,2.32,2.32,0,0,0-.35,1.07,3.12,3.12,0,0,0,.08,1.14,3.3,3.3,0,0,0,1.19,1.77A2.54,2.54,0,0,0,206,256a3.33,3.33,0,0,0,1.38-.06,3.4,3.4,0,0,0,1.21-.54,2.62,2.62,0,0,0,.77-.86,3,3,0,0,0,.34-1,3.73,3.73,0,0,0-.11-1.16m-1.19,2.14a1.48,1.48,0,0,1-2.28.92,2.24,2.24,0,0,1-.72-.93c-.13-.34-.25-.72-.36-1.1a8.08,8.08,0,0,1-.16-1,2.33,2.33,0,0,1,.2-1.11,1.34,1.34,0,0,1,1-.75,1.29,1.29,0,0,1,1.11.17,2.16,2.16,0,0,1,.71.87,6.72,6.72,0,0,1,.43,1.21,4.92,4.92,0,0,1,.12,1.73"/></g><g id="g3719"><path id="path3721" class="cls-10" d="M217.09,253a.81.81,0,0,1-.27,0,.85.85,0,0,1-.3-.13,3.77,3.77,0,0,1-.44-.37l-1-.91a2.38,2.38,0,0,0-1-.64,2.21,2.21,0,0,0,.47-.44,1.4,1.4,0,0,0,.26-.54,1.57,1.57,0,0,0-.05-.65,1.26,1.26,0,0,0-.45-.67,1.51,1.51,0,0,0-.79-.3,2.7,2.7,0,0,0-1.06.12l-2.87.9v.1a.67.67,0,0,1,.57,0,.7.7,0,0,1,.34.52l1.19,3.88a1,1,0,0,1,0,.56c0,.17-.21.27-.5.37v.1l2.6-.79V254a1.25,1.25,0,0,1-.38.05.42.42,0,0,1-.3-.12,1.23,1.23,0,0,1-.23-.45l-.56-1.78h.2a1,1,0,0,1,.6,0,1.66,1.66,0,0,1,.57.37c.2.19.55.53,1,1,.15.16.35.37.62.62l1.79-.54Zm-3.71-2.27a1.39,1.39,0,0,1-.89.61l-.24.08-.72-2.33.3-.1a1.52,1.52,0,0,1,.72-.07,1,1,0,0,1,.57.24,1.67,1.67,0,0,1,.31.56,1.26,1.26,0,0,1,0,1"/></g><g id="g3723"><path id="path3725" class="cls-10" d="M223.62,250.79a1.31,1.31,0,0,1-.57,0,1.06,1.06,0,0,1-.53-.37l-3.47-4.12-.72.25v4.93a2.49,2.49,0,0,1-.17.94.82.82,0,0,1-.4.39l.05.12,1.63-.57v-.11a.69.69,0,0,1-.39,0,.45.45,0,0,1-.27-.3,1.55,1.55,0,0,1,0-.39V250.3l1.64-.57.84,1a.3.3,0,0,1,.09.12.46.46,0,0,1,.1.17.52.52,0,0,1,.07.12c.07.21-.08.39-.41.51v.12l2.6-.88Zm-4.95-.89v-2.08l1.34,1.61Z"/></g><g id="g3727"><path id="path3729" class="cls-10" d="M222.19,245.53a.68.68,0,0,1,.57,0,.83.83,0,0,1,.38.47l1.52,3.77a.93.93,0,0,1,.07.56c0,.15-.18.3-.45.4v.11l2.54-1v-.11h0a.6.6,0,0,1-.49.06.35.35,0,0,1-.26-.18.74.74,0,0,1-.17-.31l-1.53-3.78a1,1,0,0,1-.08-.55c0-.17.19-.3.47-.41v-.11l-2.53,1Z"/></g><g id="g3731"><path id="path3733" class="cls-10" d="M232,241.54v.09a1.65,1.65,0,0,0-.29.21.36.36,0,0,0-.16.27.65.65,0,0,0,.12.42l1.87,3.44a1.83,1.83,0,0,0,.35.49.5.5,0,0,0,.28.15,1.54,1.54,0,0,0,.4,0l.05.1-2.43,1.09v-.1a.81.81,0,0,0,.4-.39c.08-.14,0-.39-.15-.67l-1.75-3.25h0l.18,5-.14.06-3.61-3.31h0l1.08,3a1.67,1.67,0,0,0,.35.64.58.58,0,0,0,.39.2,1.18,1.18,0,0,0,.4-.08l.05.1-1.81.8v-.11a.69.69,0,0,0,.4-.51,2.28,2.28,0,0,0-.14-.93l-1.21-3.47a1.42,1.42,0,0,0-1.21-.22v-.11l1.92-.85,3.08,2.82-.13-4.12Z"/></g><g id="g3735"><path id="path3737" class="cls-10" d="M241,244.12a1.54,1.54,0,0,1-.56.05,1.1,1.1,0,0,1-.56-.31l-4-3.67-.68.33.57,4.91a2,2,0,0,1-.05.95.76.76,0,0,1-.34.46l.05.11,1.56-.77v-.1a1,1,0,0,1-.38.06.38.38,0,0,1-.31-.25.92.92,0,0,1-.09-.38l-.16-1.26,1.56-.74,1,.89.09.09.14.16a.33.33,0,0,1,.07.12c.1.2,0,.39-.34.56v.1l2.46-1.2Zm-5-.28-.22-2,1.54,1.42Z"/></g><g id="g3739"><path id="path3741" class="cls-10" d="M242.86,240.29l.33.6,1.93-1-.34-.6Z"/></g><g id="ano-1989"><g id="g3745"><g id="g3751"><path id="path3753" class="cls-10" d="M248.31,234.58l2.58,4.26a.87.87,0,0,0,.41.42.67.67,0,0,0,.58-.13l.05.1-2.3,1.39-.06-.1c.27-.15.4-.32.4-.48a.81.81,0,0,0-.18-.52l-1.43-2.41a2.21,2.21,0,0,0-.24-.3.18.18,0,0,0-.24,0,1.16,1.16,0,0,0-.31.41h-.1l.71-2.51Z"/></g><g id="g3755"><path id="path3757" class="cls-10" d="M254.61,233.77a3.39,3.39,0,0,0-.39-.86,2.63,2.63,0,0,0-.83-.89,2,2,0,0,0-2.32-.07,2,2,0,0,0-.84.8,1.78,1.78,0,0,0-.28.94,1.83,1.83,0,0,0,.25.91,1.42,1.42,0,0,0,.68.6,1.62,1.62,0,0,0,.83.14,1.77,1.77,0,0,0,.75-.23,1.71,1.71,0,0,0,.8-1.24h0a4.64,4.64,0,0,1,.41,1.13,3.55,3.55,0,0,1,0,.9,2.28,2.28,0,0,1-.25.72,2.74,2.74,0,0,1-.38.52c-.13.14-.28.26-.41.38l-.42.3.17.26.44-.24c.17-.11.33-.2.47-.3a3.58,3.58,0,0,0,.47-.4,3,3,0,0,0,.47-.59,2.61,2.61,0,0,0,.38-.77,3.39,3.39,0,0,0,.16-1,4.05,4.05,0,0,0-.13-1M253,234a1,1,0,0,1-.39.42.81.81,0,0,1-.59.11.9.9,0,0,1-.48-.27,2.1,2.1,0,0,1-.37-.45,1.77,1.77,0,0,1-.27-.82.68.68,0,0,1,.38-.67.72.72,0,0,1,.73-.06,1.54,1.54,0,0,1,.63.47c.17.22.31.43.45.65a1.51,1.51,0,0,1-.09.63"/></g><g id="g3759"><path id="path3761" class="cls-10" d="M259.46,231.84a1.5,1.5,0,0,0-.92-.67,3.44,3.44,0,0,0-1.21,0,4.09,4.09,0,0,0,.32-.94,1,1,0,0,0-.16-.74,1.13,1.13,0,0,0-.46-.39,1.38,1.38,0,0,0-.72-.08,2.08,2.08,0,0,0-1,.37,2.23,2.23,0,0,0-.91,1,1.66,1.66,0,0,0-.11.87,2,2,0,0,0,.25.6,1.28,1.28,0,0,0,.82.63,3.66,3.66,0,0,0,1.08.05,2.58,2.58,0,0,0-.45,1.15,1.31,1.31,0,0,0,.17.73,1,1,0,0,0,.6.46,1.29,1.29,0,0,0,.69,0,3.23,3.23,0,0,0,.6-.21l.46-.27a4.22,4.22,0,0,0,.57-.44,1.82,1.82,0,0,0,.31-.37,1.27,1.27,0,0,0,.17-.39,1.47,1.47,0,0,0,.09-.69,1.23,1.23,0,0,0-.23-.62m-3.47-.58a1.59,1.59,0,0,1-.53-.12,1,1,0,0,1-.33-.29.82.82,0,0,1-.1-.56.72.72,0,0,1,.37-.49.67.67,0,0,1,.68-.12,1,1,0,0,1,.59.49,1.22,1.22,0,0,1,.23,1,5,5,0,0,1-.92.1m2.83,2.36a.94.94,0,0,1-.34.33.84.84,0,0,1-.86.1,1.46,1.46,0,0,1-.61-.51,1.19,1.19,0,0,1-.08-1.11,3.87,3.87,0,0,1,1.29,0,.84.84,0,0,1,.59.37.75.75,0,0,1,.12.41,1,1,0,0,1-.1.42"/></g><g id="g3763"><path id="path3765" class="cls-10" d="M263.3,229.34a3.66,3.66,0,0,0-.22-1,3.9,3.9,0,0,0-.42-.83,3,3,0,0,0-.9-.85,2,2,0,0,0-2.33.1,2.24,2.24,0,0,0-.77.84,1.75,1.75,0,0,0-.21,1,1.7,1.7,0,0,0,.31.89,1.46,1.46,0,0,0,.71.54,1.61,1.61,0,0,0,.84.1,2,2,0,0,0,.74-.28,1.72,1.72,0,0,0,.72-1.31h0a4.64,4.64,0,0,1,.42,1.09,2.62,2.62,0,0,1,0,.9,2.52,2.52,0,0,1-.19.74,2.46,2.46,0,0,1-.33.53,2.71,2.71,0,0,1-.39.41l-.39.31.17.28c.16-.1.31-.18.44-.28a3.64,3.64,0,0,0,.43-.34,4.19,4.19,0,0,0,.44-.41,4.37,4.37,0,0,0,.44-.62,2.76,2.76,0,0,0,.31-.81,2.87,2.87,0,0,0,.1-1m-1.88-.65a1,1,0,0,1-.36.44.69.69,0,0,1-.55.16,1,1,0,0,1-.51-.23,1.92,1.92,0,0,1-.39-.42,1.8,1.8,0,0,1-.35-.82.68.68,0,0,1,.35-.68.72.72,0,0,1,.73-.12,1.78,1.78,0,0,1,.64.43,8,8,0,0,1,.5.62,1.47,1.47,0,0,1,0,.63"/></g></g></g></g><g id="buriti"><path id="path3625" class="cls-5" d="M219.18,124.72c-.4-.12-.16,0-.45-.25l.37.35c-.14.11.33.34-.42.07.15.14.09.14.33.21-.57.47.35-.17-.25.16h-.09c.1.29.16.22.44.34l-.32.07c-.1,0,0-.07-.23,0a9.41,9.41,0,0,1,1.54.85c-.52-.12-1-.34-1.48-.45a1,1,0,0,0-.27,0,.69.69,0,0,1-.72-.4l-.15.57c-.28-.23-.06.08-.24-.35a3.24,3.24,0,0,1-.07-.33c-.14-.51-.1,0-.3-.54-.1.07.21-.24,0,.09v.05l-.23.23c-.07-.35-.28-.6-.3-.76.3.52-.05.44-.08.45-.33-.22-.16-.17-.42-.34l-.39-.23c0,.24.13.24.31.38l-.22.25c-.1.14-.23-.12,0,.22s.33.3.5.53c-.46.19-.07-.07-.4,0a1,1,0,0,1,.15.24c.18.36,0,.47.23.77h-.57c.45.29.76.16,1.1.57.2,0-.06.05-.17.23.13.09.39.23.49.3-.69-.1-.61-.12-.9.4-.33-.18.19.14-.21-.23h0a.33.33,0,0,0-.34-.1c-.05,0-.26-.3-.11.2-.08-.44-.28-.45-.59-.66h-.05l-.07-.05-.07-.06-.13-.15-.05.67c-.19-.31.21-.32-.23-.78a.72.72,0,0,0-.11.57c-.22-.16-.19-.66-.27-1-.12.31-.06.45-.31.68l-.15-.59c-.1.05-.38.24-.6-.21v.49c-.55-.31-.34-.18-.39,0h0a.15.15,0,0,0,0,.07,1.53,1.53,0,0,0-1.3-.37c.27.26.22.08.43.37-.54,0-.65-.18-1.29.06l1.63.36-.89.05c.17.3.45.43,1,.45l-.17.07h-.09l-.49.14.65.15a2.07,2.07,0,0,1-.65.18l.65.19c-.17.39.13.06-.34.36.54,0,.78-.1,1.34-.09h-.1s-.3.12-.42.17l.53.13-.64.1a.07.07,0,0,1,.07.07c.11.37.14-.08.23.32.26.05,0-.1,0,.06s-.15-.08,0,.18l1.92.2a6,6,0,0,0-1.37.16l.36.11c.28.07.11-.05.4.09-.4.17-.4,0-.77.28.82.27.57.56,1,.92.22.18.12-.07.25.27-.49.17-.31,0-.79-.15a7.57,7.57,0,0,1-1.74-.79c-.3-.16-.37.06-1.36-.25a11.72,11.72,0,0,0-3.32-.25,1.9,1.9,0,0,0,1,.21c.42,0,.27-.07.52.15s.13,0-.08.34c.44,0,.22-.1.7,0-.16.24,0,.06-.16.21a.81.81,0,0,1-.18.17c.54-.14.59-.36,1.22-.35a.07.07,0,0,0-.07.06,2.14,2.14,0,0,1-.52.32l.75-.08c.16.22.1.22.48.33h.17a1.81,1.81,0,0,0,.67.17c.11.18,0,.12,0,.18.5,0,.87.17,1.45.19.34.43.63.31,1,.61s-.32-.07.16.1l1,.45a1.77,1.77,0,0,1-1.09,0,6.29,6.29,0,0,0-1.47,0l.52-.16a10,10,0,0,0-1.16.09c-.89,0-2.27-.16-4-.09l1.09.16c.61.13-.35-.13.17,0l.17.06-2.66.53c-.12.23.24,0-.22.41l-.49.27c-.15.11-.1.09-.22.17s-.7.32-.8.65a2,2,0,0,1,.9-.37l-.31.4c-.56.56-.29.65-1.22.75.07,0,.24,0,.2.18a.09.09,0,0,1,0,.05,1.06,1.06,0,0,1-.17.21l.47.09c-.58.19-.2,0-.31.25a6.13,6.13,0,0,1,1.16.17h-1.05a2.92,2.92,0,0,0-1,.17c.24.15.18.19.47.27.45.14.21-.13.52.22l-.66-.14a.85.85,0,0,1,.1.14c.07.18,0,.13-.13.34s-.06,0-.1.17.27-.2,0,.21c-.16.2-.83.66-.89.91.3-.1.66-.6.91-.78a1.16,1.16,0,0,1,.5-.29c-.17.42-.4.46-.59.95l.31.08c.2,0,0-.1.37.12.07-.29.21-.4.09-.68l.45-.22-.32.86c.54-.77.49.4.52-.67l.17.2c.18.23-.12,0,.17.2.17-.47.17-1.29.58-1.7,0,.7-.42,1.12-.12,1.58l.32-.5a1.87,1.87,0,0,0,.07-.47l.17.68c.34-.24.35-.6.55-.83.12.39.07.21.23.37l.15-.5a2.67,2.67,0,0,1-.06,1.28c-.15.3.11.12-.26.2.19.19.32.15.28.35l-.07.12c-.25.42-.31.13-.44.66.56-.18.33-.13.71-.39a14.06,14.06,0,0,0,.11,1.51c.3-.35.24-1,.34-1.42.27-.06-.28-.13.11.06s-.35.06.13.06c.15,0,.22,0,.29-.23s0-.11,0-.22l-.09-.2c-.12-.19,0-.06-.15-.17a1.36,1.36,0,0,0-.23-.15c.56-.23.57-.37.59-.4.17-.23-.35-.15.34-.16-.33.38.1,1,.19,1.21h-.14a.19.19,0,0,0-.1-.05l-.08-.07c.07,1.21-.39-.31-.42.93a1.1,1.1,0,0,1,.74-.24c-.18.26-.61.52-.46.85l.1.12c.06.08.09,0,.13.11a1.86,1.86,0,0,0-.74.32l.17.13c.49.29,1-.14,1.53-.34a1.21,1.21,0,0,0-.31.23.18.18,0,0,0,0,.05l-.06.05-.35.12c-.44.12-.56.23-.62.62.74-.14.22-.23.87-.38,0,0-.15-.2,0,.28s.13-.07.12.4l-.1.47.09.45c.3-.23.19-.82.47-1-.16.43-.25.15-.16.69a1.14,1.14,0,0,0,.42.74c.14-.33,0-.6.14-1.11.1.23.09.31.27.46v-.57a.91.91,0,0,1,.1.33c.25.47-.05.22.46.35.27-.46.12-.38.22-1,.19.17-.2-.22.07.17s0,.12.3.34a1.2,1.2,0,0,1,.15-.73c.13-.23.1-.4.37-.48s0-.06.25.14a.09.09,0,0,0,.05.07c0-.35.09-.62.4-.74-.14.21,0,.33.05.57l.39-.44v-.08l.09-.15-.28-.51c.1,0,.2.2.2.22s-.18.45.3.25c.25-.06.22-.28.24-.48v-.28c.19.38-.12,0,.35.2-.08-.48,0-.23-.23-.56a3.8,3.8,0,0,0,.56.69.45.45,0,0,0,.07-.55l.52.31.08.06.13.07A3.61,3.61,0,0,1,216,141l.05-.1a.76.76,0,0,0-.12-.8,3.72,3.72,0,0,1,.65,1l.55-.18c-.28.3-.53.17-.64.47s-.22-.1.07.32h.11a2.23,2.23,0,0,1,.73-.23c-.62.12-.27.06-.43.28.23.11.23,0,.43,0a1.22,1.22,0,0,0-.59.6l-.41,1c-.1.35.06-.07-.07.25s.06.1-.11.17c.26.27-.41.39.57.14h0c0,.25-.74.77-.65,1s.17.12-.25.49a1.36,1.36,0,0,0-.56.65c.41.12-.21-.16.47,0a3,3,0,0,0-.2.71c0-.09.26-.08.34-.06.3,1.29-.19.78-.05,1.39.1.41,0,.21.35.32-.53.21-.42.27-.25.61.36-.2.42-.39.88-.55-.2.44-.66.57-.77,1.14.31,0,.25-.08.41-.21l.13-.08a3.12,3.12,0,0,1-.13.84c-.17.73,0,.2.15.77a1,1,0,0,1,.43-.3c0,.39,0,.23-.13.47l-.14.28c.49,0,.1.05.31-.23s-.19-.13.3-.32v2.08c.22-.08.15-.11.26-.33l.08-.13c.19.4-.07.34.31.48,0-.44.08-.7.08-1s-.06-.08-.08-.47c-.05-.68.35-.19.2-.8s-.45-.05-.42-.78c0-.29.06-.11.09-.46.27.09.45.34.73.51,1.84,1.24.17,6.5.55,8.65a1.09,1.09,0,0,0-.08.37c-.05.55,0,1.13-.05,1.68a10.78,10.78,0,0,0-.13,1.84l-.13,1.17a28.92,28.92,0,0,0,0,3.15,6.07,6.07,0,0,0,.09,1.73c.19.81-.12,5.55.11,6.82a4.65,4.65,0,0,1,.23,1.58,15.27,15.27,0,0,0-.3,1.51c.89.71,3.26.55,4.1,0a8.38,8.38,0,0,1-.32-3,24.48,24.48,0,0,1,.14-3.22c0-.45.11-.28.15-.59a10.87,10.87,0,0,0,.06-2.33,14.43,14.43,0,0,0-.06-1.66c-.13-.6.19-.21.17-1.28s-.21-2.26-.15-3a18.2,18.2,0,0,0,0-2.79c-1.61-6.45.39-4.39,1-13.39.84.17,1.8,1.1,2.58,1a6.29,6.29,0,0,0-.67-.32s.06-.07.06,0l.27-.25-.38-.3.19-.09s.17,0,.19-.06c-.27-.12-.38-.25-.68-.37s-.57-.13-.63-.53c.44-.11.54.17,1,.24-.46-.42-.27.08-.24-.51v-.08l.15-.31s.72.38-.49-.74l1.21.63h.15c.11.22.06.31.12.45l.05.06c.51.61-.17-.29.18.15s.17.5.28.83l.05-1c.54.22.17.29.64,0,0,.39-.06.16.11.39s.09.06.16.1h.14c-.05.3-.13.32,0,.57l.44-.47a1.48,1.48,0,0,1-.39,1l.32-.12H229c-.08.43-.16.25.07.4s.16,0,.16.18c.1-.37.11-.28.34-.51a.15.15,0,0,1,.06-.06,7.33,7.33,0,0,1-.07,1c.25-.18-.08-.2.21-.1,0,.58-.14.35.12.9v-.66l.32.29c.08-.29,0-.43.1-.74,0-.06.16,0,.12-.13a5.75,5.75,0,0,1-1-1.21c.67.17.23.2.7.41-.06-.81-.53-.93-.91-1.41.19-.1,0,0,.25,0h.22c-.39-.3-.5-.55-.91-.83s-.73-.31-.9-.92l.57.23c-.53-.49-1.29-.61-1.48-1.33s-.64-.49-.89-.89c-.37-.6.27-.08-.28-.49s-.13-.07-.43-.52c-.12-.19-.68-.46,0-.39-.43-.13-.4-.13-.4-.59a.9.9,0,0,1,.65.29c.34.27-.11.23.65.08,0,.38,0,.42.28.61l.26.18c.31.28.06,0,.28.37l.18.37.32-.2c.19-.18.14-.13.22-.28.2.2.09.07.1.4,0,.08-.05,0,0,.18l.63.34a10.44,10.44,0,0,0,.4,1.32,1.41,1.41,0,0,1,.22-.56l.19.2c.08.1,0,.1.1.19-.06-.42,0-.18.32-.28,0,.64,0,.38.25.57a1.4,1.4,0,0,1,.27.22l.17.23a.36.36,0,0,1,0,.07v.07c.05.25-.12,0,.07.31v.05c.19.26.06.09.32.2.7.3-.19.22.3.08l.2-.07.17.69c.25-.39-.52-1.37.08-1.53.83-.21-.6,0,.24,0,.16,0-.06.13.28,0l-.19.49c.26-.1.1-.15.32-.08,0,.22-.24.84-.05.62a.09.09,0,0,1,0-.05l.08-.12v-.07l.15.2c.18-.48-.11-.44.2-.78a7.54,7.54,0,0,1,.13,1.6c.11-.48-.07-1.07.17-1.52a.81.81,0,0,1,.13-.18.06.06,0,0,1,.06.06c0,.06.05.05.06.07l.22.35c.25-.36.17-.14.41-.27a1.88,1.88,0,0,1-.35-.82l.68.34c-.74-.95-.27-1.26-1.71-2.1l.14-.27c.14-.23,0-.18.22-.28-.35-.18-.2,0-.39-.35a.69.69,0,0,1,0-.69c.26.12.1,0,.35.24a1,1,0,0,1,.2.23c-.13-.62-.82-.77-1.1-1.21.6.06.61.28.9,0,.06-.05-.29-.17.27-.22H233c.13,0,.16.13.28.2l.44-.59v1c.24-.3,0-.4.39-.53l.09.59c.13,0-.24.11.27-.11l.12-.05v.47s-.16-.2.2-.07.19.18.36.24h.11a1.85,1.85,0,0,1,.23-.46l.28,1,.42-.47a.59.59,0,0,0,.44-.56l.2.12h0c-.12-.35-.15-.2-.24-.65a1.89,1.89,0,0,1,.69.2l-.1-.06a.4.4,0,0,1-.13-.12l-1-1.14c-.24-.54.13.45,0-.17a1.73,1.73,0,0,0-.65-.69c-.51-.27-.37,0-.68-.49-.46-.7-1.79-.81-2.61-.95h.07c.19-.21.12.1,0-.13-.6-.18-.89-.08-1.48-.22l-.57-.13.3-.2c.48-.3,0,0,.31-.4.79.75,1,.37,1.34.17l.29.16h.05c.3.1-.16.1.22,0a.82.82,0,0,1,.3-.13c.11.33,0,.09.23.37.11-.57.05-.18.23-.37l.16.19c.18.22-.05,0,.09.12a4.81,4.81,0,0,0-.35-1.24,1,1,0,0,1,.5.49,3.43,3.43,0,0,1,.24.54l.1-.5a.69.69,0,0,0,.12.1c.32.25.09-.24.64.17-.05-.2-.09-.34.07-.51a2.44,2.44,0,0,1,.5.54,1.25,1.25,0,0,1,.84-.06,1.51,1.51,0,0,1-.36-.48,5,5,0,0,1,1,.22l-.6-.42a6.07,6.07,0,0,0-1.34-.38l-.6-.16h-.87a5.53,5.53,0,0,1,1.19-.45,4.79,4.79,0,0,0-1.31,0,6.13,6.13,0,0,1-1.44.07c.39-.17.28,0,.64-.17-.12-.17-.37-.15-.59-.28l.35-.26a1.69,1.69,0,0,1-1-.54c.24-.23.35-.23.75-.23a4.82,4.82,0,0,0-.62-.36c.34-.2.63,0,1,.1l-.36-.37c.54.07.58.26.9.11a.86.86,0,0,1-.47-.38,1.66,1.66,0,0,1,1,.24,3.22,3.22,0,0,0-.54-.24c.25-.23.57-.23,1-.41s.59,0,1.07-.12c-.84-.27-2.26-.48-2.88.18,0,0-.06-.06-.09,0l-.38-.12a.74.74,0,0,0-.5.18,2.26,2.26,0,0,1-.47.27c-.94.38-.32-.17-1.29.57a9.18,9.18,0,0,1-1.8,1c-.41.23-.37.37-.86.55a6.22,6.22,0,0,0-1.31.8.83.83,0,0,1-.68.21l.51-.75c.17-.26.52-.35.69-.67s.4-.17.67-.4c.23,0,0,0,.07-.2s.16.17,0-.18v-.07l.65-.1v-.2c.07-.44.16-.48.72-.56,0-.16-.12-.18.18-.34l-.37-.25-.07-.07c1.08,0,.5-.13.77-.49l-.68-.08a4,4,0,0,1,1-.49c-.07-.11-.32,0-.17-.27s.28-.18.51-.2l-.84.08c-.1-.23.16-.15-.17-.18-.5-.06-.17.35-1.39-.15.17-.07.35-.18.5-.23l-.25-.16-.37-.17c.3-.09.18,0,.44-.18-.49-.44-.3-.24.24-.67l-.24-.1L227,127l.73-.13h-.05v-.07c0-.25-.05,0,.12-.24l-.69-.11H227l.18-.06h.08l.51-.06c-.69-.1-.27-.05-.46-.19l.52-.21a1.37,1.37,0,0,1-.88-.45c-.15-.29,0-.56.22-.8H227c-.22,0-.13,0-.17-.11s0-.07-.05-.19c-.19.2-.37.48-.56.68.05-.55.37-.53-.23-.87l-.16.68-.2-.57-.13,1.23-.12-1.14-.21.65a.31.31,0,0,0-.07-.24.46.46,0,0,0,0-.08l-.18-.24.05.8a2.45,2.45,0,0,1-.53-1.12c0,.45.37.8,0,1.17l-.3-.63c-.1.42-.2.45,0,.75-.64.07-.3.22-.55-.07-.05.61-.47.55-1,.8-.27.13-.21.15-.46.28.21-.39.69-.43.79-.86a.89.89,0,0,0-.56.2l-.22-.25.31-.4-.5-.27-.69.93c-.11-.23.57-1,.68-1.51l-.46.12a.3.3,0,0,1-.29-.06l-.16-.2a1.52,1.52,0,0,1-.31.92v-1.15c-.09.2,0,.43-.32.5s-.24,0-.41,0c-.39.08-.15.19-.57.4"/></g></g></g></g></g></g></g></svg>